<svg width="48" height="48" viewBox="0 0 48 48" fill="none" xmlns="http://www.w3.org/2000/svg">
<g clip-path="url(#clip0_13289_3620)">
<path d="M10.3813 43.7106C21.2223 51.2407 36.1889 48.534 43.7238 37.5947C51.2539 26.7537 48.5191 11.7871 37.6079 4.25226C26.7622 -3.27789 11.7956 -0.543059 4.26544 10.3682C-3.24129 21.1857 -0.529872 36.157 10.3813 43.7106ZM6.16203 11.4967C13.0459 1.59235 26.6217 -0.903644 36.5261 5.98026C46.5054 12.8642 48.9265 26.44 42.1128 36.3443C35.2336 46.2534 21.6531 48.7494 11.7488 41.8655C1.79286 35.0753 -0.628214 21.4761 6.16203 11.4967ZM7.83851 12.8173C1.60086 21.6915 3.88144 33.9701 12.8539 40.2078C21.803 46.3705 34.0816 44.1648 40.2444 35.197C46.4071 26.248 44.2014 13.9693 35.2336 7.8066C26.2846 1.63918 14.0059 3.86826 7.83851 12.8173ZM13.2848 39.4632C4.69627 33.5159 2.56086 21.832 8.51286 13.2482C14.4649 4.66435 26.1394 2.52426 34.7279 8.47625C43.3163 14.4283 45.4518 26.1075 39.4998 34.6913C33.5759 43.2798 21.8732 45.4152 13.2848 39.4632ZM14.2213 35.2673L14.4602 36.6581L13.4533 37.7352L14.9144 37.9506L15.6356 39.2712L16.2818 37.9506L17.7429 37.6649L16.7127 36.6581L16.8578 35.197L15.5372 35.8433L14.2213 35.2673ZM33.7913 12.5504L35.2524 12.2647L34.2221 11.2579L34.3673 9.79684L33.0467 10.4431L31.7261 9.86708L31.9415 11.3282L31.0049 12.4052L32.466 12.6206L33.1872 13.9412C33.2153 13.9178 33.7913 12.5504 33.7913 12.5504ZM9.42134 29.9662L9.63676 31.357L8.62993 32.4341L10.091 32.6495L10.8122 33.9701L11.4584 32.6495L12.9195 32.3639L11.9173 31.357L12.0625 29.896L10.7653 30.5422L9.42134 29.9662ZM28.921 9.29108L27.8908 8.28425L28.036 6.82318L26.7388 7.49284L25.4182 6.91684L25.6336 8.37791L24.6268 9.45498L26.0879 9.6704L26.809 10.991L27.4553 9.6704C27.46 9.65167 28.921 9.29108 28.921 9.29108ZM7.28593 25.096L6.2791 26.1262L7.74017 26.3416L8.46134 27.6622L9.10759 26.3416L10.5687 26.056L9.53842 25.0491L9.68359 23.5881L8.3911 24.2577L7.07051 23.6817L7.28593 25.096ZM22.3743 9.00074L21.3441 7.99391L21.4892 6.53284L20.1687 7.25401L18.8481 6.67801L19.0635 8.13908L18.0567 9.24425L19.5177 9.45967L20.2389 10.6819L20.8851 9.36133C20.9132 9.36133 22.3743 9.00074 22.3743 9.00074ZM20.3372 37.5713L20.5527 38.9621L19.5458 40.0673L21.0069 40.2827L21.7281 41.6033L22.3743 40.2827L23.8354 39.997L22.8051 38.9902L22.9503 37.5291L21.6297 38.1754L20.3372 37.5713ZM39.9306 16.8212L38.9004 15.8144L39.0455 14.3533L37.7249 14.9996L36.409 14.4236L36.6245 15.8846L35.6176 16.9617L37.0787 17.1771L37.7999 18.4977L38.4461 17.1771C38.4461 17.1818 39.9306 16.8212 39.9306 16.8212ZM26.3548 37.1873L26.5936 38.6483L25.5868 39.7254L27.0479 39.9408L27.769 41.2614L28.4153 39.9408L29.8764 39.6552L28.8461 38.5781L28.9913 37.117L27.6707 37.7633L26.3548 37.1873ZM37.2941 22.6281L38.7552 22.8435L39.4764 24.1641L40.1226 22.8435L41.5837 22.5578L40.5768 21.551L40.722 20.0899L39.4248 20.7596L38.1043 20.1836L38.3197 21.6446C38.3244 21.6212 37.2941 22.6281 37.2941 22.6281Z" fill="#1D65F3"/>
<path d="M18.0176 23.552L12.9152 18.4495L11.9874 19.3772L17.0899 24.4797L18.0176 23.552ZM10.2451 21.1195L15.3476 26.222L16.2866 25.283L11.1842 20.1805L10.2451 21.1195ZM8.02763 21.2779L12.7002 16.6053L19.907 23.8122L15.2797 28.4395L14.2049 27.3647L14.5217 27.0479L9.41922 21.9454L9.05718 22.3074L8.02763 21.2779ZM19.149 16.017L17.1012 18.0648L18.3231 19.2867L20.3709 17.2389L19.149 16.017ZM19.3187 20.2823L22.8147 23.7782L21.9435 24.6494L11.829 14.5349L12.7002 13.6638L16.1283 17.0918L18.176 15.044L15.3702 12.2382L16.2301 11.3784L18.2665 13.4149C18.4249 12.9397 18.572 12.2948 18.6173 11.7518L19.8844 12.3174C19.8618 12.9963 19.726 13.7882 19.511 14.2521L18.8435 13.9919L21.8869 17.0353C22.5431 16.8995 23.4256 16.6732 24.0026 16.4356L24.7154 17.8046C24.1497 17.963 23.5614 18.0987 23.0296 18.1779L25.1679 20.3162L24.3081 21.1761L21.3665 18.2345L19.3187 20.2823ZM15.4494 13.0641L16.6374 13.5959C16.5242 14.4557 16.1961 15.4627 15.8567 16.051L14.5896 15.5079C14.9177 14.9309 15.291 13.924 15.4494 13.0641ZM20.7556 21.6513L20.2125 20.5651C20.9479 20.3728 22.0453 19.9995 22.7468 19.66L23.4143 20.9159C22.4866 21.2326 21.4909 21.5268 20.7556 21.6513ZM30.7682 30.4646L29.139 28.8355L28.3244 29.65L29.9536 31.2792L30.7682 30.4646ZM33.4043 33.1007L31.7185 31.415L30.904 32.2296L32.5897 33.9153L33.4043 33.1007ZM29.2861 33.8474L30.9718 35.5332L31.8204 34.6846L30.1346 32.9989L29.2861 33.8474ZM26.7066 31.2679L28.3357 32.8971L29.1843 32.0486L27.5551 30.4194L26.7066 31.2679ZM25.9146 32.0599L24.127 33.8474L23.1427 32.8631L28.9467 27.0592L31.7977 29.9103C31.4696 28.9938 31.0623 27.9756 30.689 27.1497L31.9448 27.2515C32.2616 27.8851 32.601 28.6544 32.9178 29.4238C33.574 29.65 34.332 29.7971 34.9995 29.8989L30.5985 25.4979L31.4131 24.6833L36.7645 30.0347L37.0247 30.1818L37.1604 31.3132C35.9951 31.3018 34.6375 31.0982 33.3817 30.7475C33.54 31.1548 33.6532 31.5168 33.7324 31.8449L35.1918 33.3044L30.3609 38.1353C29.8857 38.6105 29.5576 38.7576 29.1051 38.5766C28.6299 38.3955 28.1434 37.9317 27.4306 37.2189C27.6569 36.9248 27.8832 36.4496 27.9963 36.0875C28.4376 36.574 28.8901 37.004 29.0146 37.1284C29.1503 37.2642 29.2408 37.2642 29.3766 37.1284L30.1799 36.3251L28.4941 34.6394L26.7518 36.3817L25.8015 35.4313L27.5438 33.689L25.9146 32.0599ZM28.7543 25.7808L27.2949 25.7468C27.4193 24.8304 27.3741 23.1333 27.2949 21.8775L28.6412 21.9793C28.7543 23.1786 28.8562 24.8643 28.7543 25.7808ZM26.4124 27.3986L22.4413 31.3697C22.5205 31.6978 22.5658 32.0825 22.7015 32.6482C22.9957 33.8248 23.8895 34.877 25.1226 36.1102C26.4011 37.3886 28.2679 39.0517 29.5576 40.07C29.173 40.2284 28.5394 40.5451 28.2565 40.8054C27.3854 40.0473 25.4055 38.1806 24.1949 36.97C22.8147 35.5897 22.0227 34.5489 21.6946 33.2931C21.5023 32.5803 21.4909 31.8449 21.242 31.596C20.88 31.234 19.6808 31.3245 18.4249 31.5168L18.6512 30.0008C19.7486 29.9668 20.7669 30.0573 21.457 30.3402L24.4325 27.3647L22.9165 25.8486L23.8895 24.8757L26.4124 27.3986Z" fill="#1D65F3"/>
</g>
<defs>
<clipPath id="clip0_13289_3620">
<rect width="48" height="48" fill="white"/>
</clipPath>
</defs>
</svg>
