<svg width="48" height="48" viewBox="0 0 48 48" fill="none" xmlns="http://www.w3.org/2000/svg">
<g clip-path="url(#clip0_13289_3628)">
<path d="M10.3813 43.7106C21.2223 51.2407 36.1889 48.534 43.7238 37.5947C51.2539 26.7537 48.5191 11.7871 37.6079 4.25226C26.7622 -3.27789 11.7956 -0.543059 4.26544 10.3682C-3.24129 21.1857 -0.529872 36.157 10.3813 43.7106ZM6.16203 11.4967C13.0459 1.59235 26.6217 -0.903644 36.5261 5.98026C46.5054 12.8642 48.9265 26.44 42.1128 36.3443C35.2336 46.2534 21.6531 48.7494 11.7488 41.8655C1.79286 35.0753 -0.628214 21.4761 6.16203 11.4967ZM7.83851 12.8173C1.60086 21.6915 3.88144 33.9701 12.8539 40.2078C21.803 46.3705 34.0816 44.1648 40.2444 35.197C46.4071 26.248 44.2014 13.9693 35.2336 7.8066C26.2846 1.63918 14.0059 3.86826 7.83851 12.8173ZM13.2848 39.4632C4.69627 33.5159 2.56086 21.832 8.51286 13.2482C14.4649 4.66435 26.1394 2.52426 34.7279 8.47625C43.3163 14.4283 45.4518 26.1075 39.4998 34.6913C33.5759 43.2798 21.8732 45.4152 13.2848 39.4632ZM14.2213 35.2673L14.4602 36.6581L13.4533 37.7352L14.9144 37.9506L15.6356 39.2712L16.2818 37.9506L17.7429 37.6649L16.7127 36.6581L16.8578 35.197L15.5372 35.8433L14.2213 35.2673ZM33.7913 12.5504L35.2524 12.2647L34.2221 11.2579L34.3673 9.79684L33.0467 10.4431L31.7261 9.86708L31.9415 11.3282L31.0049 12.4052L32.466 12.6206L33.1872 13.9412C33.2153 13.9178 33.7913 12.5504 33.7913 12.5504ZM9.42134 29.9662L9.63676 31.357L8.62993 32.4341L10.091 32.6495L10.8122 33.9701L11.4584 32.6495L12.9195 32.3639L11.9173 31.357L12.0625 29.896L10.7653 30.5422L9.42134 29.9662ZM28.921 9.29108L27.8908 8.28425L28.036 6.82318L26.7388 7.49284L25.4182 6.91684L25.6336 8.37791L24.6268 9.45498L26.0879 9.6704L26.809 10.991L27.4553 9.6704C27.46 9.65167 28.921 9.29108 28.921 9.29108ZM7.28593 25.096L6.2791 26.1262L7.74017 26.3416L8.46134 27.6622L9.10759 26.3416L10.5687 26.056L9.53842 25.0491L9.68359 23.5881L8.3911 24.2577L7.07051 23.6817L7.28593 25.096ZM22.3743 9.00074L21.3441 7.99391L21.4892 6.53284L20.1687 7.25401L18.8481 6.67801L19.0635 8.13908L18.0567 9.24425L19.5177 9.45967L20.2389 10.6819L20.8851 9.36133C20.9132 9.36133 22.3743 9.00074 22.3743 9.00074ZM20.3372 37.5713L20.5527 38.9621L19.5458 40.0673L21.0069 40.2827L21.7281 41.6033L22.3743 40.2827L23.8354 39.997L22.8051 38.9902L22.9503 37.5291L21.6297 38.1754L20.3372 37.5713ZM39.9306 16.8212L38.9004 15.8144L39.0455 14.3533L37.7249 14.9996L36.409 14.4236L36.6245 15.8846L35.6176 16.9617L37.0787 17.1771L37.7999 18.4977L38.4461 17.1771C38.4461 17.1818 39.9306 16.8212 39.9306 16.8212ZM26.3548 37.1873L26.5936 38.6483L25.5868 39.7254L27.0479 39.9408L27.769 41.2614L28.4153 39.9408L29.8764 39.6552L28.8461 38.5781L28.9913 37.117L27.6707 37.7633L26.3548 37.1873ZM37.2941 22.6281L38.7552 22.8435L39.4764 24.1641L40.1226 22.8435L41.5837 22.5578L40.5768 21.551L40.722 20.0899L39.4248 20.7596L38.1043 20.1836L38.3197 21.6446C38.3244 21.6212 37.2941 22.6281 37.2941 22.6281Z" fill="#F78431"/>
<path d="M21.5136 21.4815L17.9384 17.9064C16.4224 19.3546 14.2841 20.9951 11.9987 21.244C11.9874 20.8706 11.8404 20.1126 11.7046 19.7505C14.0578 19.5016 16.0151 17.7707 17.3954 16.3904L19.8505 13.9353C21.853 15.7568 24.2741 17.7707 25.892 18.6871L25.9372 20.4067C24.1044 19.3659 21.9096 17.5783 20.0089 15.8586L18.8888 16.9787L22.8825 20.9724L23.0975 21.1195L23.5274 22.002C21.8869 23.0089 20.2578 23.552 18.6738 23.7103C18.7757 24.9209 18.8435 26.0749 18.8435 26.9121L17.2936 26.8556C17.3275 26.0523 17.2936 24.9549 17.237 23.7443C15.8567 23.7217 14.4991 23.3822 13.2546 22.8392C13.3903 22.4545 13.5148 21.8096 13.5148 21.4024C14.6348 21.9341 15.8793 22.2509 17.1691 22.3188C17.0899 21.244 16.9881 20.1465 16.9089 19.1849L18.2439 19.3206C18.3457 20.2144 18.4589 21.2553 18.5607 22.2848C19.545 22.183 20.5406 21.9115 21.5136 21.4815ZM17.4633 14.1503L15.9472 13.9014C16.083 13.0868 16.1735 11.5934 16.2188 10.5072L17.599 10.8014C17.599 11.8649 17.5651 13.347 17.4633 14.1503ZM15.1666 15.9039L11.0484 20.0221C11.1502 20.3275 11.2181 20.7122 11.3539 21.1874C11.7272 22.3527 12.6776 23.4388 13.9334 24.6946C15.1892 25.9505 17.022 27.6023 18.3005 28.5866C17.8932 28.7449 17.2144 29.107 16.875 29.3785C16.0151 28.6318 14.0352 26.7877 12.9038 25.6563C11.5236 24.276 10.6524 23.156 10.2564 21.9228C9.99622 21.1195 9.96228 20.4067 9.69075 20.1352C9.35134 19.7958 8.19734 19.9995 7.11122 20.1805L7.40538 18.4608C8.51412 18.4382 9.47579 18.5626 10.1094 18.8568L13.1301 15.836L11.7838 14.4897L12.7681 13.5054L15.1666 15.9039ZM30.1572 22.7713L30.8587 24.0384C29.8518 24.5476 28.7883 25.0001 27.6909 25.3961L19.9183 33.1686L18.9227 32.173L24.8624 26.2333C24.1497 26.3804 23.4482 26.4935 22.792 26.5614C22.9617 26.2107 23.2785 25.3508 23.369 24.9209C25.4281 24.7625 27.9511 23.9592 30.1572 22.7713ZM34.7506 31.3245L32.0014 28.5752C31.8543 29.3785 31.843 30.3176 32.0127 31.3245C32.9517 31.4942 33.8681 31.5055 34.7506 31.3245ZM36.3685 31.1548L36.6853 32.0599C35.2597 32.6708 33.7889 32.8066 32.3295 32.6142C32.6576 33.6438 33.178 34.7299 33.9247 35.7934C33.54 35.7934 32.8839 35.9292 32.5105 36.0536C31.7299 34.7978 31.2321 33.5306 30.9605 32.354C29.5124 31.9694 28.1095 31.2905 26.7858 30.4646C26.8989 30.1705 27.0347 29.7179 27.0686 29.3672L23.4143 33.0215L22.5318 32.1391L27.9398 26.7311L28.8222 27.6136L27.1931 29.2428C28.3131 30.0008 29.5237 30.623 30.7456 31.0077C30.689 30.1818 30.7116 29.4125 30.8248 28.711C30.2025 28.7902 29.5802 28.8241 29.0259 28.7902C29.0146 28.4395 28.9354 27.7493 28.8449 27.3647C30.4514 27.5457 32.3521 27.2063 33.97 26.4483L34.7054 27.6588C34.2528 27.8625 33.7663 28.0322 33.3025 28.1793L36.1535 31.0303L36.3685 31.1548ZM30.3496 35.2503L30.7908 36.3478C28.9806 36.4383 26.7971 35.635 24.8737 34.5036C24.9529 34.1982 25.0321 33.689 25.0321 33.3044C26.7518 34.4131 28.8222 35.2843 30.3496 35.2503ZM30.3722 33.0781L30.8134 34.1982C29.4219 34.2095 27.7248 33.6438 26.3219 32.9197C26.3898 32.6029 26.4011 32.0938 26.3558 31.7318C27.6117 32.4445 29.2182 33.0555 30.3722 33.0781ZM30.0667 37.4339L30.5759 38.7123C28.0982 38.9273 25.2584 37.6488 22.4979 35.7255C22.6563 35.3635 22.792 34.7752 22.8033 34.3339C25.2924 36.212 27.9737 37.5583 30.0667 37.4339Z" fill="#F78431"/>
</g>
<defs>
<clipPath id="clip0_13289_3628">
<rect width="48" height="48" fill="white"/>
</clipPath>
</defs>
</svg>
